<svg xmlns="http://www.w3.org/2000/svg" version="1.1" xmlns:xlink="http://www.w3.org/1999/xlink" xmlns:svgjs="http://svgjs.dev/svgjs" width="1500" height="1042" viewBox="0 0 1500 1042"><g transform="matrix(1,0,0,1,-1.9089816845281575,6.542902830046273)"><svg viewBox="0 0 357 248" data-background-color="#242d45" preserveAspectRatio="xMidYMid meet" height="1042" width="1500" xmlns="http://www.w3.org/2000/svg" xmlns:xlink="http://www.w3.org/1999/xlink"><g id="tight-bounds" transform="matrix(1,0,0,1,0.4543376409177142,0.6307362399963949)"><svg viewBox="0 0 356.09132471816457 247.2" height="247.2" width="356.09132471816457"><g><svg viewBox="0 0 395.52 274.5715416610724" height="247.2" width="356.09132471816457"><g transform="matrix(1,0,0,1,0,165.85790284978597)"><svg viewBox="0 0 395.52 108.71363881128642" height="108.71363881128642" width="395.52"><g id="textblocktransform"><svg viewBox="0 0 395.52 108.71363881128642" height="108.71363881128642" width="395.52" id="textblock"><g><svg viewBox="0 0 395.52 66.14672398968186" height="66.14672398968186" width="395.52"><g transform="matrix(1,0,0,1,0,0)"><svg width="395.52" viewBox="1 -38.9 232.59 38.9" height="66.14672398968186" data-palette-color="#ecab55"><path d="M1 0L1-8.2 3.5-8.2 3.5-30.65 1-30.65 1-38.9 21.3-38.9Q29.65-38.9 34.58-34.33 39.5-29.75 39.5-19.45L39.5-19.45Q39.5-9.15 34.58-4.58 29.65 0 21.3 0L21.3 0 1 0ZM17.5-8.2L20.4-8.2Q22.1-8.2 22.95-9.1 23.8-10 23.8-11.9L23.8-11.9 23.8-27Q23.8-30.7 20.4-30.7L20.4-30.7 17.5-30.7 17.5-8.2ZM57.95-9.95L41.9-9.95 41.9-18.15 57.95-18.15 57.95-9.95ZM115.8-38.9L115.8-30.7 113.3-30.7 113.3-8.2 115.8-8.2 115.8 0 96.9 0 96.9-8.2 99.3-8.2 99.3-25.7 90.8 0 83.4 0 74.65-25.45 74.65-8.2 77.05-8.2 77.05 0 60.65 0 60.65-8.2 63.15-8.2 63.15-30.7 60.65-30.7 60.65-38.9 83.55-38.9 88.75-23.3 93.75-38.9 115.8-38.9ZM146.04-38.9L154.49-8.2 156.49-8.2 156.49 0 136.89 0 136.89-8.2 139.89-8.2 139.09-12.2 132.29-12.2 131.49-8.2 134.49-8.2 134.49 0 117.39 0 117.39-8.2 119.39-8.2 127.84-38.9 146.04-38.9ZM135.44-27.45L133.39-17.5 137.99-17.5 135.94-27.45 135.44-27.45ZM158.09 0L158.09-8.2 160.59-8.2 160.59-30.7 158.09-30.7 158.09-38.9 181.04-38.9Q187.49-38.9 190.89-36.25 194.29-33.6 194.29-27.65L194.29-27.65Q194.29-24.3 192.94-21.85 191.59-19.4 189.09-18.45L189.09-18.45 189.14-17.95Q193.94-17.2 193.94-12.05L193.94-12.05 193.94-8.2 196.29-8.2 196.29 0 180.44 0 180.44-11.75Q180.44-13.7 179.87-14.7 179.29-15.7 178.07-16.05 176.84-16.4 174.59-16.4L174.59-16.4 174.59-8.2 177.89-8.2 177.89 0 158.09 0ZM174.59-22.5L177.29-22.5Q178.74-22.5 179.47-23.28 180.19-24.05 180.19-25.7L180.19-25.7 180.19-27.5Q180.19-29.15 179.47-29.93 178.74-30.7 177.29-30.7L177.29-30.7 174.59-30.7 174.59-22.5ZM233.59-38.9L233.59-26.8 224.99-26.8 224.99-30.7 221.79-30.7 221.79-8.2 225.29-8.2 225.29 0 204.29 0 204.29-8.2 207.79-8.2 207.79-30.7 204.59-30.7 204.59-26.8 195.99-26.8 195.99-38.9 233.59-38.9Z" opacity="1" transform="matrix(1,0,0,1,0,0)" fill="#ecab55" class="wordmark-text-0" data-fill-palette-color="primary" id="text-0"></path></svg></g></svg></g><g transform="matrix(1,0,0,1,0,81.76237800227)"><svg viewBox="0 0 395.52 26.951260809016418" height="26.951260809016418" width="395.52"><g transform="matrix(1,0,0,1,0,0)"><svg width="395.52" viewBox="4.15 -39.65 753.77 51.37" height="26.951260809016418" data-palette-color="#ecab55"><path d="M16.06 0L4.15 0 4.15-34.52 16.16-34.52Q20.61-34.52 24.15-33.48 27.69-32.45 30.14-30.33 32.59-28.22 33.9-25.04 35.21-21.85 35.21-17.55L35.21-17.55Q35.21-14.28 34.53-11.71 33.86-9.13 32.63-7.18 31.4-5.22 29.65-3.87 27.91-2.51 25.78-1.65 23.66-0.78 21.2-0.39 18.75 0 16.06 0L16.06 0ZM15.09-27.39L15.09-7.81 15.82-7.81Q17.72-7.81 19.29-8.17 20.85-8.52 21.96-9.57 23.07-10.62 23.67-12.52 24.27-14.43 24.27-17.55L24.27-17.55Q24.27-20.39 23.73-22.28 23.19-24.17 22.14-25.31 21.09-26.44 19.56-26.92 18.02-27.39 16.04-27.39L16.04-27.39 15.09-27.39ZM47.73 0.71L47.73 0.71Q46.16 0.71 44.74 0.27 43.31-0.17 42.21-1.07 41.11-1.98 40.46-3.36 39.82-4.74 39.82-6.62L39.82-6.62Q39.82-8.42 40.4-9.75 40.99-11.08 41.98-12.04 42.97-12.99 44.3-13.61 45.63-14.23 47.12-14.59 48.61-14.94 50.18-15.08 51.76-15.21 53.24-15.21L53.24-15.21Q54.27-15.21 55.22-15.16 56.17-15.11 57-15.04L57-15.04Q56.96-16.58 56.42-17.59 55.88-18.6 55-19.2 54.12-19.8 52.95-20.04 51.78-20.29 50.49-20.29L50.49-20.29Q49.29-20.29 48.03-20.13 46.77-19.97 45.58-19.74 44.38-19.51 43.3-19.24 42.21-18.97 41.38-18.75L41.38-18.75 41.38-25.59Q42.58-25.85 43.96-26.11 45.33-26.37 46.82-26.56 48.31-26.76 49.86-26.88 51.41-27 52.93-27L52.93-27Q54.81-27 56.63-26.77 58.44-26.54 60.07-26 61.69-25.46 63.07-24.56 64.45-23.66 65.44-22.33 66.43-21 66.99-19.19 67.55-17.38 67.55-15.01L67.55-15.01 67.55 0 57.49 0 57.49-4.37Q56.91-3.17 55.86-2.23 54.81-1.29 53.49-0.63 52.17 0.02 50.68 0.37 49.19 0.71 47.73 0.71ZM51.85-5.03L51.85-5.03Q52.54-5.03 53.43-5.41 54.32-5.79 55.11-6.57 55.91-7.35 56.46-8.54 57-9.74 57-11.4L57-11.4 56.2-11.4Q55.03-11.4 53.79-11.16 52.56-10.91 51.54-10.42 50.51-9.94 49.85-9.23 49.19-8.52 49.19-7.59L49.19-7.59Q49.19-6.86 49.44-6.37 49.68-5.88 50.06-5.58 50.44-5.27 50.91-5.15 51.39-5.03 51.85-5.03ZM74.78 0L74.78-26.34 85.32-26.34 85.32 0 74.78 0ZM80.07-31.76L80.07-31.76Q78.68-31.76 77.46-32.06 76.24-32.35 75.35-32.86 74.46-33.37 73.93-34.11 73.41-34.84 73.41-35.72L73.41-35.72Q73.41-36.69 73.92-37.44 74.43-38.18 75.34-38.67 76.24-39.16 77.46-39.4 78.68-39.65 80.1-39.65L80.1-39.65Q81.51-39.65 82.75-39.4 83.98-39.16 84.88-38.67 85.79-38.18 86.3-37.44 86.81-36.69 86.81-35.72L86.81-35.72Q86.81-34.84 86.29-34.11 85.76-33.37 84.86-32.86 83.95-32.35 82.72-32.06 81.49-31.76 80.07-31.76ZM93.21 0L93.21-37.5 103.75-37.5 103.75 0 93.21 0ZM128.26-9.67L128.26-26.34 138.81-26.34 138.81-3.69Q138.81-0.93 138.25 1.27 137.69 3.47 136.68 5.19 135.68 6.91 134.3 8.14 132.92 9.38 131.26 10.17 129.6 10.96 127.72 11.34 125.84 11.72 123.87 11.72L123.87 11.72Q121.21 11.72 118.52 11.45 115.83 11.18 113.61 10.55L113.61 10.55 114.35 4.39Q117.01 5.03 118.8 5.2 120.6 5.37 121.45 5.37L121.45 5.37Q123.89 5.37 125.34 4.66 126.8 3.96 127.55 2.49L127.55 2.49Q127.92 1.76 128.15 1.05 128.38 0.34 128.53-0.42 128.68-1.17 128.73-1.99 128.77-2.81 128.77-3.81L128.77-3.81Q128.26-2.88 127.38-2.17 126.5-1.46 125.43-0.98 124.36-0.49 123.17-0.24 121.99 0 120.86 0L120.86 0Q118.91 0 117.15-0.6 115.4-1.2 114.04-2.48 112.69-3.76 111.89-5.76 111.1-7.76 111.1-10.55L111.1-10.55 111.1-26.34 120.47-26.34 120.47-10.84Q120.47-9.62 120.83-8.73 121.18-7.84 121.76-7.26 122.33-6.69 123.06-6.41 123.79-6.13 124.55-6.13L124.55-6.13Q125.26-6.13 125.93-6.36 126.6-6.59 127.11-7.04 127.63-7.5 127.94-8.15 128.26-8.81 128.26-9.67L128.26-9.67ZM179.84 0.71L179.84 0.71Q176.65 0.71 174.13 0.01 171.62-0.68 169.7-1.92 167.78-3.15 166.45-4.85 165.12-6.54 164.28-8.53 163.44-10.52 163.06-12.72 162.68-14.92 162.68-17.19L162.68-17.19Q162.68-19.43 163.14-21.64 163.61-23.85 164.54-25.85 165.46-27.86 166.88-29.57 168.3-31.27 170.2-32.52 172.1-33.76 174.51-34.47 176.91-35.18 179.84-35.18L179.84-35.18Q182.77-35.18 185.18-34.47 187.58-33.76 189.5-32.52 191.42-31.27 192.83-29.57 194.25-27.86 195.19-25.85 196.13-23.85 196.59-21.64 197.06-19.43 197.06-17.19L197.06-17.19Q197.06-14.92 196.66-12.72 196.27-10.52 195.43-8.53 194.59-6.54 193.25-4.85 191.9-3.15 190-1.92 188.1-0.68 185.57 0.01 183.04 0.71 179.84 0.71ZM173.62-17.19L173.62-17.19Q173.62-14.26 174.05-12.18 174.47-10.11 175.27-8.79 176.06-7.47 177.22-6.86 178.38-6.25 179.84-6.25L179.84-6.25Q181.31-6.25 182.47-6.86 183.63-7.47 184.45-8.79 185.26-10.11 185.69-12.18 186.12-14.26 186.12-17.19L186.12-17.19Q186.12-20.12 185.69-22.2 185.26-24.29 184.45-25.62 183.63-26.95 182.47-27.59 181.31-28.22 179.84-28.22L179.84-28.22Q178.38-28.22 177.22-27.59 176.06-26.95 175.27-25.62 174.47-24.29 174.05-22.2 173.62-20.12 173.62-17.19ZM214.97-20.19L214.97 0 204.43 0 204.43-20.19 200.23-20.19 200.23-26.34 204.38-26.34Q204.38-29.35 205.18-31.58 205.99-33.81 207.48-35.3 208.97-36.79 211.08-37.54 213.19-38.28 215.83-38.28L215.83-38.28Q217.98-38.28 219.81-37.82 221.64-37.35 223.18-36.72L223.18-36.72 222.39-30.44Q220.98-30.79 220.04-31.02 219.1-31.25 218.22-31.25L218.22-31.25Q217.1-31.25 216.45-30.83 215.8-30.42 215.47-29.74 215.14-29.05 215.06-28.16 214.97-27.27 214.97-26.34L214.97-26.34 222.35-26.34Q222-24.73 221.81-23.24 221.61-21.75 221.61-20.19L221.61-20.19 214.97-20.19ZM238.38-20.19L238.38 0 227.84 0 227.84-20.19 223.64-20.19 223.64-26.34 227.79-26.34Q227.79-29.35 228.59-31.58 229.4-33.81 230.89-35.3 232.38-36.79 234.49-37.54 236.6-38.28 239.24-38.28L239.24-38.28Q241.39-38.28 243.22-37.82 245.05-37.35 246.59-36.72L246.59-36.72 245.81-30.44Q244.39-30.79 243.45-31.02 242.51-31.25 241.63-31.25L241.63-31.25Q240.51-31.25 239.86-30.83 239.21-30.42 238.88-29.74 238.55-29.05 238.47-28.16 238.38-27.27 238.38-26.34L238.38-26.34 245.76-26.34Q245.41-24.73 245.22-23.24 245.02-21.75 245.02-20.19L245.02-20.19 238.38-20.19ZM274.37-7.98L274.37-1.05Q272.07-0.29 269.41 0.21 266.75 0.71 263.87 0.71L263.87 0.71Q260.72 0.71 257.86-0.12 255.01-0.95 252.83-2.71 250.66-4.47 249.38-7.17 248.1-9.86 248.1-13.6L248.1-13.6Q248.1-15.72 248.76-17.54 249.42-19.36 250.55-20.85 251.69-22.34 253.21-23.49 254.74-24.63 256.48-25.42 258.23-26.2 260.08-26.6 261.94-27 263.72-27L263.72-27Q266.53-27 268.68-26.38 270.83-25.76 272.26-24.71 273.68-23.66 274.42-22.27 275.15-20.87 275.15-19.31L275.15-19.31Q275.15-17.41 274.5-16.06 273.85-14.72 272.77-13.81 271.68-12.89 270.25-12.37 268.83-11.84 267.24-11.56 265.65-11.28 264-11.21 262.36-11.13 260.87-11.13L260.87-11.13Q260.35-11.13 259.88-11.15 259.4-11.16 258.94-11.16L258.94-11.16Q259.13-9.77 259.71-8.81 260.28-7.86 261.15-7.26 262.01-6.67 263.15-6.41 264.28-6.15 265.58-6.15L265.58-6.15Q266.55-6.15 267.67-6.3 268.78-6.45 269.91-6.7 271.05-6.96 272.18-7.29 273.32-7.62 274.37-7.98L274.37-7.98ZM258.72-14.92L258.72-14.92Q259.3-14.94 260.22-14.99 261.13-15.04 262.16-15.16 263.19-15.28 264.21-15.5 265.24-15.72 266.07-16.06 266.9-16.41 267.41-16.92 267.92-17.43 267.92-18.16L267.92-18.16Q267.92-19.41 266.93-20.15 265.94-20.9 264.19-20.9L264.19-20.9Q263.38-20.9 262.45-20.67 261.53-20.43 260.72-19.78 259.91-19.12 259.35-17.94 258.79-16.77 258.72-14.92ZM281.62 0L281.62-26.34 291.65-26.34Q291.6-25.71 291.58-24.94 291.55-24.17 291.55-23.33 291.55-22.49 291.55-21.63 291.55-20.78 291.55-20L291.55-20Q292.04-21.19 292.82-22.45 293.6-23.71 294.66-24.71 295.73-25.71 297.08-26.35 298.44-27 300.12-27L300.12-27Q300.44-27 300.82-26.97 301.2-26.93 301.56-26.86 301.93-26.78 302.26-26.67 302.59-26.56 302.81-26.42L302.81-26.42 301.95-16.36Q300.85-16.77 299.63-16.98 298.41-17.19 297.51-17.19L297.51-17.19Q296.26-17.19 295.32-16.88 294.38-16.58 293.73-16.09 293.07-15.6 292.69-15.01 292.31-14.43 292.16-13.87L292.16-13.87 292.16 0 281.62 0ZM328.12-25.63L327.76-18.46Q325.31-19.58 322.98-20.2 320.65-20.83 318.89-20.83L318.89-20.83Q317.04-20.83 316.26-20.47 315.48-20.12 315.48-19.24L315.48-19.24Q315.48-18.46 316.62-18.01 317.77-17.55 319.99-16.97L319.99-16.97Q322.21-16.38 323.97-15.67 325.73-14.97 326.96-13.92 328.2-12.87 328.84-11.4 329.49-9.94 329.49-7.81L329.49-7.81Q329.49-5.91 328.76-4.33 328.02-2.76 326.54-1.64 325.05-0.51 322.78 0.1 320.5 0.71 317.43 0.71L317.43 0.71Q314.69 0.71 311.94 0.31 309.18-0.1 306.37-1.12L306.37-1.12 306.37-8.67Q308.88-7.57 311.42-6.91 313.96-6.25 316.26-6.25L316.26-6.25Q320.38-6.25 320.38-7.96L320.38-7.96Q320.38-8.25 320.19-8.5 319.99-8.74 319.47-8.97 318.94-9.2 318-9.46 317.06-9.72 315.6-10.08L315.6-10.08Q313.57-10.57 311.78-11.34 309.98-12.11 308.65-13.22 307.32-14.33 306.55-15.82 305.78-17.31 305.78-19.21L305.78-19.21Q305.78-20.92 306.5-22.36 307.22-23.8 308.68-24.83 310.13-25.85 312.29-26.43 314.45-27 317.31-27L317.31-27Q318.97-27 320.49-26.86 322.02-26.71 323.39-26.5 324.75-26.29 325.94-26.06 327.12-25.83 328.12-25.63L328.12-25.63ZM365.13 0L353.21 0 353.21-34.52 365.23-34.52Q369.67-34.52 373.21-33.48 376.75-32.45 379.2-30.33 381.66-28.22 382.96-25.04 384.27-21.85 384.27-17.55L384.27-17.55Q384.27-14.28 383.6-11.71 382.93-9.13 381.69-7.18 380.46-5.22 378.72-3.87 376.97-2.51 374.85-1.65 372.72-0.78 370.27-0.39 367.81 0 365.13 0L365.13 0ZM364.15-27.39L364.15-7.81 364.88-7.81Q366.79-7.81 368.35-8.17 369.91-8.52 371.02-9.57 372.14-10.62 372.73-12.52 373.33-14.43 373.33-17.55L373.33-17.55Q373.33-20.39 372.79-22.28 372.26-24.17 371.21-25.31 370.16-26.44 368.62-26.92 367.08-27.39 365.1-27.39L365.1-27.39 364.15-27.39ZM396.79 0.71L396.79 0.71Q395.23 0.71 393.8 0.27 392.37-0.17 391.27-1.07 390.17-1.98 389.53-3.36 388.88-4.74 388.88-6.62L388.88-6.62Q388.88-8.42 389.47-9.75 390.05-11.08 391.04-12.04 392.03-12.99 393.36-13.61 394.69-14.23 396.18-14.59 397.67-14.94 399.24-15.08 400.82-15.21 402.31-15.21L402.31-15.21Q403.33-15.21 404.29-15.16 405.24-15.11 406.07-15.04L406.07-15.04Q406.02-16.58 405.48-17.59 404.95-18.6 404.07-19.2 403.19-19.8 402.02-20.04 400.84-20.29 399.55-20.29L399.55-20.29Q398.35-20.29 397.1-20.13 395.84-19.97 394.64-19.74 393.45-19.51 392.36-19.24 391.27-18.97 390.44-18.75L390.44-18.75 390.44-25.59Q391.64-25.85 393.02-26.11 394.4-26.37 395.89-26.56 397.38-26.76 398.93-26.88 400.48-27 401.99-27L401.99-27Q403.87-27 405.69-26.77 407.51-26.54 409.13-26 410.76-25.46 412.14-24.56 413.51-23.66 414.5-22.33 415.49-21 416.05-19.19 416.62-17.38 416.62-15.01L416.62-15.01 416.62 0 406.56 0 406.56-4.37Q405.97-3.17 404.92-2.23 403.87-1.29 402.55-0.63 401.23 0.02 399.75 0.37 398.26 0.71 396.79 0.71ZM400.92-5.03L400.92-5.03Q401.6-5.03 402.49-5.41 403.38-5.79 404.18-6.57 404.97-7.35 405.52-8.54 406.07-9.74 406.07-11.4L406.07-11.4 405.26-11.4Q404.09-11.4 402.86-11.16 401.63-10.91 400.6-10.42 399.57-9.94 398.92-9.23 398.26-8.52 398.26-7.59L398.26-7.59Q398.26-6.86 398.5-6.37 398.74-5.88 399.12-5.58 399.5-5.27 399.98-5.15 400.45-5.03 400.92-5.03ZM423.84 0L423.84-26.34 434.39-26.34 434.39 0 423.84 0ZM429.14-31.76L429.14-31.76Q427.75-31.76 426.53-32.06 425.3-32.35 424.41-32.86 423.52-33.37 423-34.11 422.47-34.84 422.47-35.72L422.47-35.72Q422.47-36.69 422.98-37.44 423.5-38.18 424.4-38.67 425.3-39.16 426.53-39.4 427.75-39.65 429.16-39.65L429.16-39.65Q430.58-39.65 431.81-39.4 433.04-39.16 433.95-38.67 434.85-38.18 435.36-37.44 435.88-36.69 435.88-35.72L435.88-35.72Q435.88-34.84 435.35-34.11 434.83-33.37 433.92-32.86 433.02-32.35 431.79-32.06 430.55-31.76 429.14-31.76ZM442.27 0L442.27-37.5 452.82-37.5 452.82 0 442.27 0ZM477.33-9.67L477.33-26.34 487.87-26.34 487.87-3.69Q487.87-0.93 487.31 1.27 486.75 3.47 485.75 5.19 484.75 6.91 483.37 8.14 481.99 9.38 480.33 10.17 478.67 10.96 476.79 11.34 474.91 11.72 472.93 11.72L472.93 11.72Q470.27 11.72 467.58 11.45 464.9 11.18 462.68 10.55L462.68 10.55 463.41 4.39Q466.07 5.03 467.87 5.2 469.66 5.37 470.51 5.37L470.51 5.37Q472.96 5.37 474.41 4.66 475.86 3.96 476.62 2.49L476.62 2.49Q476.98 1.76 477.22 1.05 477.45 0.34 477.59-0.42 477.74-1.17 477.79-1.99 477.84-2.81 477.84-3.81L477.84-3.81Q477.33-2.88 476.45-2.17 475.57-1.46 474.49-0.98 473.42-0.49 472.24-0.24 471.05 0 469.93 0L469.93 0Q467.98 0 466.22-0.6 464.46-1.2 463.1-2.48 461.75-3.76 460.96-5.76 460.16-7.76 460.16-10.55L460.16-10.55 460.16-26.34 469.54-26.34 469.54-10.84Q469.54-9.62 469.89-8.73 470.25-7.84 470.82-7.26 471.39-6.69 472.13-6.41 472.86-6.13 473.61-6.13L473.61-6.13Q474.32-6.13 474.99-6.36 475.67-6.59 476.18-7.04 476.69-7.5 477.01-8.15 477.33-8.81 477.33-9.67L477.33-9.67ZM525.56 0L513.65 0 513.65-34.52 525.66-34.52Q530.1-34.52 533.64-33.48 537.18-32.45 539.64-30.33 542.09-28.22 543.4-25.04 544.7-21.85 544.7-17.55L544.7-17.55Q544.7-14.28 544.03-11.71 543.36-9.13 542.13-7.18 540.89-5.22 539.15-3.87 537.4-2.51 535.28-1.65 533.16-0.78 530.7-0.39 528.25 0 525.56 0L525.56 0ZM524.59-27.39L524.59-7.81 525.32-7.81Q527.22-7.81 528.79-8.17 530.35-8.52 531.46-9.57 532.57-10.62 533.17-12.52 533.77-14.43 533.77-17.55L533.77-17.55Q533.77-20.39 533.23-22.28 532.69-24.17 531.64-25.31 530.59-26.44 529.05-26.92 527.52-27.39 525.54-27.39L525.54-27.39 524.59-27.39ZM551.02 0L551.02-26.34 561.57-26.34 561.57 0 551.02 0ZM556.32-31.76L556.32-31.76Q554.93-31.76 553.71-32.06 552.49-32.35 551.6-32.86 550.71-33.37 550.18-34.11 549.66-34.84 549.66-35.72L549.66-35.72Q549.66-36.69 550.17-37.44 550.68-38.18 551.59-38.67 552.49-39.16 553.71-39.4 554.93-39.65 556.35-39.65L556.35-39.65Q557.76-39.65 559-39.4 560.23-39.16 561.13-38.67 562.03-38.18 562.55-37.44 563.06-36.69 563.06-35.72L563.06-35.72Q563.06-34.84 562.54-34.11 562.01-33.37 561.11-32.86 560.2-32.35 558.97-32.06 557.74-31.76 556.32-31.76ZM590.33-25.63L589.96-18.46Q587.52-19.58 585.19-20.2 582.86-20.83 581.1-20.83L581.1-20.83Q579.24-20.83 578.46-20.47 577.68-20.12 577.68-19.24L577.68-19.24Q577.68-18.46 578.83-18.01 579.98-17.55 582.2-16.97L582.2-16.97Q584.42-16.38 586.18-15.67 587.94-14.97 589.17-13.92 590.4-12.87 591.05-11.4 591.7-9.94 591.7-7.81L591.7-7.81Q591.7-5.91 590.96-4.33 590.23-2.76 588.74-1.64 587.25-0.51 584.98 0.1 582.71 0.71 579.63 0.71L579.63 0.71Q576.9 0.71 574.14 0.31 571.38-0.1 568.58-1.12L568.58-1.12 568.58-8.67Q571.09-7.57 573.63-6.91 576.17-6.25 578.46-6.25L578.46-6.25Q582.59-6.25 582.59-7.96L582.59-7.96Q582.59-8.25 582.39-8.5 582.2-8.74 581.67-8.97 581.15-9.2 580.21-9.46 579.27-9.72 577.8-10.08L577.8-10.08Q575.78-10.57 573.98-11.34 572.19-12.11 570.86-13.22 569.53-14.33 568.76-15.82 567.99-17.31 567.99-19.21L567.99-19.21Q567.99-20.92 568.71-22.36 569.43-23.8 570.88-24.83 572.34-25.85 574.5-26.43 576.66-27 579.51-27L579.51-27Q581.17-27 582.7-26.86 584.22-26.71 585.59-26.5 586.96-26.29 588.14-26.06 589.33-25.83 590.33-25.63L590.33-25.63ZM606.37-13.13L606.37-13.13Q606.37-11.35 606.79-10.03 607.22-8.72 608-7.85 608.78-6.98 609.88-6.56 610.98-6.13 612.35-6.13L612.35-6.13Q614.11-6.13 615.67-6.6 617.23-7.08 618.87-7.91L618.87-7.91 620.43-1.56Q619.35-1 618.11-0.57 616.86-0.15 615.55 0.13 614.23 0.42 612.87 0.56 611.52 0.71 610.22 0.71L610.22 0.71Q607.27 0.71 604.66-0.12 602.04-0.95 600.08-2.66 598.11-4.37 596.97-6.98 595.82-9.59 595.82-13.16L595.82-13.16Q595.82-16.72 596.97-19.34 598.11-21.95 600.08-23.66 602.04-25.37 604.66-26.2 607.27-27.03 610.22-27.03L610.22-27.03Q611.52-27.03 612.87-26.88 614.23-26.73 615.55-26.45 616.86-26.17 618.11-25.74 619.35-25.32 620.43-24.76L620.43-24.76 618.87-18.41Q617.23-19.24 615.67-19.71 614.11-20.19 612.35-20.19L612.35-20.19Q610.98-20.19 609.88-19.76 608.78-19.34 608-18.46 607.22-17.58 606.79-16.25 606.37-14.92 606.37-13.13ZM640.67 0.71L640.67 0.71Q637.78 0.71 635.54 0.17 633.29-0.37 631.61-1.32 629.92-2.27 628.74-3.58 627.55-4.88 626.82-6.42 626.09-7.96 625.76-9.67 625.43-11.38 625.43-13.13L625.43-13.13Q625.43-14.87 625.76-16.56 626.09-18.26 626.82-19.81 627.55-21.36 628.73-22.67 629.9-23.97 631.6-24.94 633.29-25.9 635.54-26.45 637.78-27 640.67-27L640.67-27Q643.55-27 645.79-26.45 648.04-25.9 649.73-24.94 651.43-23.97 652.6-22.67 653.78-21.36 654.51-19.81 655.24-18.26 655.57-16.56 655.9-14.87 655.9-13.13L655.9-13.13Q655.9-11.38 655.57-9.67 655.24-7.96 654.51-6.42 653.78-4.88 652.59-3.58 651.41-2.27 649.72-1.32 648.04-0.37 645.79 0.17 643.55 0.71 640.67 0.71ZM635.98-13.13L635.98-13.13Q635.98-11.82 636.22-10.56 636.47-9.3 637.02-8.31 637.56-7.32 638.46-6.73 639.35-6.13 640.67-6.13L640.67-6.13Q641.98-6.13 642.87-6.73 643.77-7.32 644.32-8.31 644.86-9.3 645.11-10.56 645.35-11.82 645.35-13.13L645.35-13.13Q645.35-14.45 645.11-15.71 644.86-16.97 644.32-17.96 643.77-18.95 642.87-19.56 641.98-20.17 640.67-20.17L640.67-20.17Q639.35-20.17 638.46-19.56 637.56-18.95 637.02-17.96 636.47-16.97 636.22-15.71 635.98-14.45 635.98-13.13ZM691.08-26.34L691.08 0 680.56 0 680.77-1.68Q680.87-2.47 680.95-3.44 681.02-4.42 681.07-5.47L681.07-5.47Q680.34-4.03 679.22-2.89 678.11-1.76 676.77-0.95 675.43-0.15 673.91 0.28 672.4 0.71 670.86 0.71L670.86 0.71Q668.96 0.71 667.25 0.09 665.54-0.54 664.23-1.89 662.93-3.25 662.16-5.38 661.39-7.52 661.39-10.55L661.39-10.55 661.39-26.34 671.94-26.34 671.94-11.52Q671.94-10.01 672.22-8.98 672.5-7.96 672.99-7.32 673.48-6.69 674.11-6.41 674.74-6.13 675.45-6.13L675.45-6.13Q676.28-6.13 677.13-6.47 677.97-6.81 678.66-7.4 679.36-7.98 679.86-8.78 680.36-9.57 680.53-10.47L680.53-10.47 680.53-26.34 691.08-26.34ZM698.69 0L698.69-26.34 709.24-26.34Q709.09-25.51 708.95-24.21 708.8-22.9 708.8-21.51L708.8-21.51Q709.63-22.75 710.89-23.77 712.14-24.78 713.66-25.5 715.17-26.22 716.87-26.61 718.57-27 720.3-27L720.3-27Q722.2-27 723.91-26.43 725.62-25.85 726.92-24.61 728.21-23.36 728.97-21.37 729.72-19.38 729.72-16.55L729.72-16.55 729.72 0 719.18 0 719.18-15.01Q719.18-16.53 718.86-17.53 718.54-18.53 717.98-19.12 717.42-19.7 716.65-19.95 715.88-20.19 714.98-20.19L714.98-20.19Q714-20.19 713.05-19.86 712.1-19.53 711.31-18.97 710.53-18.41 709.97-17.65 709.41-16.89 709.24-16.04L709.24-16.04 709.24 0 698.69 0ZM750.18 0.71L750.18 0.71Q747.91 0.71 745.83 0.16 743.76-0.39 742.18-1.7 740.61-3 739.67-5.16 738.73-7.32 738.73-10.55L738.73-10.55 738.73-20.29 733.87-20.29 733.87-21.88 745.37-34.38 749.28-34.38 749.28-26.34 757.09-26.34Q756.8-24.88 756.56-23.39 756.33-21.9 756.31-20.29L756.31-20.29 749.28-20.29 749.28-10.64Q749.28-9.77 749.41-8.95 749.54-8.13 749.96-7.51 750.37-6.88 751.16-6.51 751.94-6.13 753.23-6.13L753.23-6.13Q754.06-6.13 755.06-6.29 756.06-6.45 757.33-6.88L757.33-6.88 757.92-0.56Q756.38 0 754.39 0.35 752.4 0.71 750.18 0.71Z" opacity="1" transform="matrix(1,0,0,1,0,0)" fill="#ecab55" class="slogan-text-1" data-fill-palette-color="secondary" id="text-1"></path></svg></g></svg></g></svg></g></svg></g><g transform="matrix(1,0,0,1,115.08818058440421,0)"><svg viewBox="0 0 165.34363883119156 150.24224883719785" height="150.24224883719785" width="165.34363883119156"><g><svg xmlns:x="http://ns.adobe.com/Extensibility/1.0/" xmlns:i="http://ns.adobe.com/AdobeIllustrator/10.0/" xmlns:graph="http://ns.adobe.com/Graphs/1.0/" xmlns="http://www.w3.org/2000/svg" xmlns:xlink="http://www.w3.org/1999/xlink" xmlns:a="http://ns.adobe.com/AdobeSVGViewerExtensions/3.0/" version="1.1" x="0" y="0" viewBox="5.0001316282588935 9.11 89.99985772558368 81.7798683717411" enable-background="new 0 0 100 100" xml:space="preserve" height="150.24224883719785" width="165.34363883119156" class="icon-icon-0" data-fill-palette-color="accent" id="icon-0"><g fill="#ecab55" data-fill-palette-color="accent"><path d="M13.384 44.255L5.163 74.938A4.794 4.794 0 0 0 8.55 80.802L24.31 85.024z" fill="#ecab55" data-fill-palette-color="accent"></path><path d="M22.46 53.458L31.538 87.34A4.794 4.794 0 0 0 37.402 90.727L55.011 86.006z" fill="#ecab55" data-fill-palette-color="accent"></path><path d="M49.642 45.608A6 6 0 0 0 48.599 44.274L47.22 42.944A5.7 5.7 0 0 0 45.84 41.958 4.4 4.4 0 0 0 44.301 41.494 3.5 3.5 0 0 0 42.723 41.699C42.193 41.89 41.698 42.225 41.238 42.702 40.765 43.191 40.447 43.701 40.281 44.232A3.5 3.5 0 0 0 40.142 45.808C40.216 46.329 40.389 46.836 40.663 47.329 40.935 47.822 41.28 48.27 41.698 48.673L43.077 50.003C43.494 50.405 43.951 50.731 44.448 50.98S45.458 51.378 45.985 51.427A3.65 3.65 0 0 0 47.574 51.214C48.103 51.022 48.604 50.682 49.076 50.193 49.537 49.716 49.849 49.212 50.015 48.681A3.6 3.6 0 0 0 50.163 47.113 4.1 4.1 0 0 0 49.642 45.608" fill="#ecab55" data-fill-palette-color="accent"></path><path d="M93.597 47.856L54.855 9.114 27.386 9.11A6.39 6.39 0 0 0 20.999 15.497L20.998 42.97 59.741 81.713A4.787 4.787 0 0 0 66.513 81.713L93.596 54.627A4.785 4.785 0 0 0 93.597 47.856M35.28 23.395A4.785 4.785 0 0 1 28.508 23.395 4.788 4.788 0 1 1 35.28 23.395M52.934 49.628C52.587 50.561 52.017 51.438 51.224 52.262 50.418 53.097 49.553 53.708 48.628 54.094A7.2 7.2 0 0 1 45.842 54.673 6.8 6.8 0 0 1 43.115 54.099 8.1 8.1 0 0 1 40.693 52.473L39.314 51.143A8.2 8.2 0 0 1 37.584 48.765 7.1 7.1 0 0 1 36.892 46.06 6.9 6.9 0 0 1 37.351 43.256C37.705 42.318 38.277 41.437 39.071 40.613 39.877 39.778 40.743 39.167 41.667 38.781S43.518 38.211 44.444 38.229 46.277 38.448 47.164 38.83A8.2 8.2 0 0 1 49.602 40.474L50.98 41.804A8.3 8.3 0 0 1 52.704 44.155C53.124 45.021 53.353 45.916 53.394 46.842A7.1 7.1 0 0 1 52.934 49.628M61.306 64.159L53.206 31.791 56.201 31.051 64.3 63.419zM79.866 51.107C79.519 52.04 78.95 52.918 78.156 53.741 77.35 54.576 76.485 55.187 75.559 55.573A7.2 7.2 0 0 1 72.775 56.152C71.842 56.152 70.932 55.96 70.046 55.577S68.347 54.647 67.607 53.932L66.211 52.586A8.2 8.2 0 0 1 64.488 50.217 6.9 6.9 0 0 1 63.797 47.512C63.757 46.587 63.913 45.655 64.265 44.716S65.191 42.897 65.985 42.074C66.79 41.239 67.656 40.627 68.581 40.241S70.432 39.665 71.357 39.672A6.9 6.9 0 0 1 74.085 40.264 8.2 8.2 0 0 1 76.516 41.899L77.912 43.245A8.2 8.2 0 0 1 79.643 45.623C80.057 46.495 80.285 47.394 80.325 48.319A7 7 0 0 1 79.866 51.107" fill="#ecab55" data-fill-palette-color="accent"></path><path d="M76.558 47.07A6 6 0 0 0 75.513 45.735L74.117 44.389A5.7 5.7 0 0 0 72.737 43.403 4.3 4.3 0 0 0 71.207 42.947 3.6 3.6 0 0 0 69.638 43.16C69.108 43.351 68.613 43.686 68.153 44.163S67.38 45.144 67.213 45.675A3.8 3.8 0 0 0 67.058 47.251 4.1 4.1 0 0 0 67.561 48.772C67.832 49.266 68.178 49.713 68.596 50.116L69.992 51.462C70.41 51.865 70.869 52.193 71.372 52.448S72.392 52.855 72.92 52.904A3.64 3.64 0 0 0 74.507 52.691C75.037 52.499 75.537 52.159 76.01 51.669 76.47 51.192 76.782 50.688 76.949 50.158A3.6 3.6 0 0 0 77.089 48.582 4.3 4.3 0 0 0 76.558 47.07" fill="#ecab55" data-fill-palette-color="accent"></path></g></svg></g></svg></g><g></g></svg></g><defs></defs></svg><rect width="356.09132471816457" height="247.2" fill="none" stroke="none" visibility="hidden"></rect></g></svg></g></svg>